# xmcd
#
# Track frame offsets:
#	150
#	20631
#	42844
#	66385
#	90647
#	116112
#	138827
#	167282
#	186583
#	206103
#
# Disc length: 3129 seconds
#
# Revision: 2
# Processed by: cddbd v1.5.2PL0 Copyright (c) Steve Scherf et al.
# Submitted via: EZCDAudioConverter 8.0.2.1
#
DISCID=8f0c370a
DTITLE=Ý Lan - st. Lam Phương. Tình Ca Không Đoạn Kết
DYEAR=2004
DGENRE=Pop
TTITLE0=Ý Lan - Duyên kiếp
TTITLE1=Ý Lan - Chờ người
TTITLE2=Ý Lan - Cỏ úa
TTITLE3=Ý Lan - Mùa thu yêu đương
TTITLE4=Ý Lan - Một mình
TTITLE5=Ý Lan - Bài tango cho em
TTITLE6=Ý Lan - Phút cuối
TTITLE7=Ý Lan - Tình anh lính chiến
TTITLE8=Ý Lan - Đèn khuya
TTITLE9=Ý Lan, Lam Phương -  Bài Thơ Không Đoạn Kết
EXTD=
EXTT0=
EXTT1=
EXTT2=
EXTT3=
EXTT4=
EXTT5=
EXTT6=
EXTT7=
EXTT8=
EXTT9=
PLAYORDER=
